<?xml version="1.0"?>
<svg width="148" height="25" xmlns="http://www.w3.org/2000/svg" xmlns:svg="http://www.w3.org/2000/svg">
 <g class="layer">
  <title>Layer 1</title>
  <g fill="none" fill-rule="evenodd" id="svg_1">
   <path d="m37,6.3l5.23,0c0.74,0 1.43,0.15 2.06,0.47c0.63,0.31 1.12,0.73 1.48,1.27s0.55,1.12 0.55,1.75c0,0.67 -0.17,1.25 -0.5,1.75c-0.33,0.49 -0.76,0.86 -1.3,1.12l0,0.15c0.7,0.25 1.25,0.65 1.66,1.19c0.41,0.54 0.62,1.19 0.62,1.95c0,0.73 -0.2,1.38 -0.59,1.95a3.82,3.82 0 0 1 -1.58,1.31c-0.67,0.3 -1.41,0.45 -2.22,0.45l-5.41,0l0,-13.36zm5.04,5.45c0.55,0 0.99,-0.15 1.32,-0.46c0.33,-0.3 0.49,-0.69 0.49,-1.15c0,-0.44 -0.16,-0.82 -0.47,-1.13c-0.32,-0.3 -0.74,-0.45 -1.26,-0.45l-2.6,0l0,3.19l2.52,0zm0.28,5.62c0.61,0 1.09,-0.16 1.43,-0.48c0.34,-0.31 0.51,-0.73 0.51,-1.24c0,-0.51 -0.17,-0.93 -0.52,-1.25c-0.35,-0.32 -0.85,-0.48 -1.5,-0.48l-2.72,0l0,3.45l2.8,0zm12.93,2.59c-1.31,0 -2.49,-0.3 -3.56,-0.92a6.71,6.71 0 0 1 -2.51,-2.53c-0.61,-1.07 -0.91,-2.25 -0.91,-3.53c0,-1.28 0.3,-2.46 0.91,-3.53a6.71,6.71 0 0 1 2.51,-2.53c1.07,-0.61 2.25,-0.92 3.56,-0.92c1.3,0 2.49,0.31 3.55,0.92a6.71,6.71 0 0 1 2.51,2.53c0.61,1.07 0.92,2.25 0.92,3.53c0,1.28 -0.31,2.46 -0.92,3.53a6.71,6.71 0 0 1 -2.51,2.53c-1.06,0.62 -2.25,0.92 -3.55,0.92zm0,-2.39a4.52,4.52 0 0 0 2.26,-0.57a4.18,4.18 0 0 0 1.61,-1.63c0.39,-0.7 0.59,-1.49 0.59,-2.39c0,-0.9 -0.2,-1.69 -0.59,-2.39a4.18,4.18 0 0 0 -1.61,-1.62a4.52,4.52 0 0 0 -2.26,-0.58a4.47,4.47 0 0 0 -2.25,0.58a4.2,4.2 0 0 0 -1.61,1.62c-0.39,0.7 -0.59,1.49 -0.59,2.39c0,0.9 0.2,1.69 0.59,2.39a4.2,4.2 0 0 0 1.61,1.62a4.47,4.47 0 0 0 2.25,0.58zm15.35,2.39c-1.31,0 -2.49,-0.3 -3.56,-0.92a6.71,6.71 0 0 1 -2.51,-2.53c-0.61,-1.07 -0.91,-2.25 -0.91,-3.53c0,-1.28 0.3,-2.46 0.91,-3.53a6.71,6.71 0 0 1 2.51,-2.53c1.07,-0.61 2.25,-0.92 3.56,-0.92c1.31,0 2.49,0.31 3.56,0.92a6.71,6.71 0 0 1 2.51,2.53c0.61,1.07 0.91,2.25 0.91,3.53c0,1.28 -0.3,2.46 -0.91,3.53a6.71,6.71 0 0 1 -2.51,2.53c-1.07,0.62 -2.25,0.92 -3.56,0.92zm0,-2.39a4.52,4.52 0 0 0 2.26,-0.57a4.18,4.18 0 0 0 1.61,-1.63c0.39,-0.7 0.59,-1.49 0.59,-2.39c0,-0.9 -0.2,-1.69 -0.59,-2.39a4.18,4.18 0 0 0 -1.61,-1.62a4.52,4.52 0 0 0 -2.26,-0.58a4.47,4.47 0 0 0 -2.25,0.58a4.2,4.2 0 0 0 -1.61,1.62c-0.39,0.7 -0.58,1.49 -0.58,2.39c0,0.9 0.19,1.69 0.58,2.39a4.2,4.2 0 0 0 1.61,1.62a4.47,4.47 0 0 0 2.25,0.58zm9.23,-11.27l2.52,0l0,5.73l0.15,0l4.89,-5.73l3.04,0l0,0.15l-4.83,5.52l5.34,7.55l0,0.14l-3.08,0l-4,-5.69l-1.51,1.77l0,3.92l-2.52,0l0,-13.36zm13.95,-0.3l3.25,0l3.54,9.39l0.15,0l3.55,-9.39l3.26,0l0,13.37l-2.5,0l0,-6.59l0.15,-2.22l-0.15,0l-3.39,8.81l-1.96,0l-3.42,-8.81l-0.15,0l0.15,2.22l0,6.59l-2.48,0l0,-13.37zm20.8,0l2.89,0l5.02,13.37l-2.78,0l-1.12,-3.2l-5.11,0l-1.12,3.2l-2.78,0l5,-13.37zm3.19,7.86l-1.17,-3.36l-0.49,-1.61l-0.15,0l-0.48,1.61l-1.2,3.36l3.49,0zm6.78,-7.86l4.88,0c0.87,0 1.64,0.18 2.32,0.54c0.68,0.36 1.2,0.86 1.58,1.5c0.37,0.64 0.56,1.37 0.56,2.18c0,0.86 -0.27,1.62 -0.82,2.29a4.62,4.62 0 0 1 -2.04,1.44l-0.02,0.13l3.59,5.14l0,0.15l-2.9,0l-3.45,-5.03l-1.18,0l0,5.02l-2.52,0l0,-13.36zm4.86,6.03c0.57,0 1.04,-0.17 1.4,-0.52c0.36,-0.35 0.54,-0.79 0.54,-1.33c0,-0.51 -0.17,-0.94 -0.52,-1.3c-0.34,-0.37 -0.8,-0.55 -1.39,-0.55l-2.37,0l0,3.7l2.34,0zm7.23,-6.03l2.52,0l0,5.73l0.15,0l4.89,-5.73l3.04,0l0,0.15l-4.84,5.53l5.34,7.54l0,0.15l-3.08,0l-3.99,-5.7l-1.51,1.78l0,3.92l-2.52,0l0,-13.37z" fill="#ffffff" fill-rule="nonzero" id="svg_2"/>
   <g id="svg_3">
    <circle cx="12.5" cy="12.5" fill="#5267DF" id="svg_4" r="12.5"/>
    <path d="m9,9l0,10l3.54,-3.44l3.54,3.44l0,-10a2,2 0 0 0 -2,-2l-3.08,0a2,2 0 0 0 -2,2z" fill="#FFF" id="svg_5"/>
   </g>
  </g>
 </g>
</svg>